<?xml version="1.0" encoding="UTF-8" standalone="no"?>
<!-- Created with Inkscape (http://www.inkscape.org/) -->

<svg
   width="49.386139mm"
   height="45.858185mm"
   viewBox="0 0 49.386139 45.858185"
   version="1.1"
   id="svg1"
   xml:space="preserve"
   xmlns="http://www.w3.org/2000/svg"
   xmlns:svg="http://www.w3.org/2000/svg"><defs
     id="defs1" /><path
     id="path29"
     style="display:inline;fill:#000000;fill-opacity:1;stroke-width:0.277152"
     d="M 24.69307,-6.4526723e-6 C 11.055652,-1.2737713e-5 2.575131e-4,10.265507 -1.2210719e-6,22.928827 -4.9406385e-5,35.592349 11.055432,45.858188 24.69307,45.858177 c 13.637637,0 24.693118,-10.265828 24.693066,-22.92935 -0.0021,-1.407087 -0.143173,-2.811029 -0.422198,-4.194059 -2.861086,4.288803 -7.082225,5.769996 -9.359641,-3.378605 C 31.960808,22.341998 24.20004,14.794694 28.755353,8.7012711 24.439908,7.3418681 23.599588,2.1636199 26.572538,0.07285707 25.94727,0.02641062 25.320327,0.00210846 24.69307,-7.5001791e-6 Z M 10.4014,18.79645 c 1.94831,7.8e-5 3.527636,1.469963 3.527427,3.283004 -9.4e-5,1.812841 -1.579326,3.282407 -3.527427,3.282491 C 8.453299,25.361871 6.8740568,23.892299 6.8739626,22.079454 6.8737531,20.266409 8.4530791,18.796523 10.4014,18.79645 Z m 19.094991,9.038021 c 0.800337,-8.4e-5 1.449131,0.636937 1.449016,1.422703 -2.2e-4,0.785515 -0.64893,1.422158 -1.449016,1.422085 -0.800096,7.3e-5 -1.448796,-0.63657 -1.449006,-1.422085 -1.36e-4,-0.785756 0.648669,-1.422787 1.449006,-1.422703 z m -8.853747,4.865868 c 1.491796,-2.09e-4 2.701237,1.200873 2.701153,2.682519 8.4e-5,1.481625 -1.209357,2.682717 -2.701153,2.682518 -1.491598,-1.05e-4 -2.700693,-1.201113 -2.700588,-2.682518 -1.05e-4,-1.481416 1.20899,-2.682424 2.700588,-2.682519 z" /></svg>
