<?xml version="1.0" encoding="UTF-8" standalone="no"?>
<!-- Created with Inkscape (http://www.inkscape.org/) -->

<svg
   width="52.467194mm"
   height="52.456669mm"
   viewBox="0 0 52.467194 52.456669"
   version="1.1"
   id="svg1"
   xmlns="http://www.w3.org/2000/svg"
   xmlns:svg="http://www.w3.org/2000/svg">
  <defs
     id="defs1" />
  <path
     id="path36"
     style="display:none;fill:#000000;fill-opacity:1;stroke-width:0.1365"
     d="m 30.161973,-27.207755 c -0.51799,0 -1.03564,0.16817 -1.35512,0.50446 -3.157358,3.32352 -4.277033,6.78741 -0.33631,10.93553 0.7975,0.83948 2.58597,0.83948 3.38347,0 3.94073,-4.14812 2.82105,-7.61201 -0.33631,-10.93553 -0.31948,-0.33629 -0.83775,-0.50446 -1.35573,-0.50446 z m -17.083026,7.36228 c -0.903658,0 -1.91707,1.06662 -1.917072,2.01784 -6e-6,4.70015 1.535201,7.9829495 7.10819,7.9829495 1.127865,0 2.392476,-1.3313495 2.392476,-2.5185795 0,-5.8663 -3.118451,-7.48221 -7.583594,-7.48221 z m 34.166656,0 c -4.46508,1.1e-4 -7.58355,1.61595 -7.58359,7.48221 0,1.18722 1.26462,2.5179695 2.39248,2.5179695 5.57293,5e-5 5.39945,-3.6400295 7.10819,-7.9823395 -0.34582,-0.87875 -1.01347,-2.01786 -1.91708,-2.01784 z m -17.49227,8.00398 c -6.50331,1.1e-4 -11.774959,5.2717495 -11.775063,11.7750595 -4.2e-5,6.50341 5.271651,11.7755705 11.775063,11.7756805 6.50351,3e-5 11.77573,-5.2721705 11.77568,-11.7756805 -9e-5,-6.50341 -5.27227,-11.7750995 -11.77568,-11.7750595 z m -19.559576,7.5638095 c -1.9522906,-0.0542 -3.7705746,1.13626 -5.5465886,3.00573 -0.638965,0.67259 -0.638965,2.18108 0,2.85367 3.157357,3.32353 6.4476896,4.50235 10.3884166,0.35423 0.797497,-0.83948 0.797497,-2.72203 0,-3.5615 -1.724068,-1.81482 -3.32338,-2.61002 -4.841828,-2.65213 z m 39.937046,0 c -1.51845,0.0421 -3.11776,0.83731 -4.84183,2.65213 -0.79751,0.83947 -0.79751,2.72202 0,3.5615 3.94072,4.14812 7.23106,2.9693 10.38841,-0.35423 0.63898,-0.67259 0.63898,-2.18108 0,-2.85367 -1.776,-1.86947 -3.59429,-3.05988 -5.54658,-3.00573 z M 18.270065,10.154445 c -5.572986,0 -7.108182,3.28281 -7.10819,7.98296 -1e-6,0.95122 1.013409,2.01784 1.917072,2.01784 4.465146,10e-6 7.583594,-1.6159 7.583594,-7.48221 0,-1.18723 -1.264611,-2.51859 -2.392476,-2.51859 z m 23.784428,6.2e-4 c -1.12786,0 -2.39247,1.33135 -2.39248,2.51858 0,5.86631 3.11846,7.4816 7.58359,7.4816 0.90367,0 1.91708,-1.06662 1.91708,-2.01784 0,-4.70015 -1.5352,-7.98234 -7.10819,-7.98234 z m -11.89252,5.29312 c -0.6465,0 -1.29268,0.2096 -1.69143,0.62934 -3.940723,4.14813 -2.821048,7.61201 0.33631,10.93553 0.63897,0.6726 2.07189,0.6726 2.71085,0 3.15736,-3.32352 4.27704,-6.7874 0.33631,-10.93553 -0.39875,-0.41974 -1.04554,-0.62934 -1.69204,-0.62934 z" />
  <path
     id="path65"
     style="display:none;fill:#000000;fill-opacity:1;stroke-width:0.264583"
     d="m 39.110743,40.163955 a 24.695705,24.695705 0 0 0 -24.695656,24.69566 24.695705,24.695705 0 0 0 24.695656,24.69565 24.695705,24.695705 0 0 0 24.69616,-24.69565 24.695705,24.695705 0 0 0 -24.69616,-24.69566 z m 0,6.87917 a 17.816538,17.816538 0 0 1 8.92296,2.39676 l -24.399541,24.22642 a 17.816538,17.816538 0 0 1 -2.339899,-8.80669 17.816538,17.816538 0 0 1 17.81648,-17.81649 z m 15.46882,8.99119 a 17.816538,17.816538 0 0 1 2.34818,8.8253 17.816538,17.816538 0 0 1 -17.817,17.81648 17.816538,17.816538 0 0 1 -8.93847,-2.40812 z" />
  <path
     id="rect49"
     style="display:none;fill:#000000;fill-opacity:1;stroke-width:0.264583"
     d="m -29.109384,40.965985 c -9.210692,-0.0234 -10.342497,0.24544 -11.270113,1.04179 -2.104086,1.71442 -2.247355,42.68184 0,44.15338 2.426765,1.87371 42.4430834,1.42952 42.9963414,0 1.316298,-1.30634 1.028988,-36.63604 0,-37.55481 l -5.192965,-6.59857 c -1.30304,-0.4982 -14.6909454,-1.01166 -26.5332634,-1.04179 z m 1.203027,4.75991 c 2.599256,0.003 8.53881,0.22329 11.237897,0.26869 -0.151382,3.9941 -0.182344,8.00296 0.108521,12.53877 1.770114,0.58286 4.5877,0.614 6.8791664,0 0.374002,-4.35987 0.354287,-8.35671 0.155029,-12.38116 3.814016,0.10546 3.501621,0.0313 3.729664,0.0889 0.529167,0.65078 0.767863,13.54312 0,14.25546 -0.621493,1.30566 -25.4675224,0.61727 -26.1704944,0 -0.349668,-0.94278 -0.64286,-11.85627 0,-14.25546 0.742819,-0.39479 -1.641055,-0.52164 4.060217,-0.51522 z m 11.403955,19.60087 c 5.654529,-0.002 10.2604294,0.13768 10.7063224,0.55862 1.324373,1.23529 1.003583,16.7421 0,17.44494 -1.411774,1.35773 -24.7776884,1.63897 -26.1704944,0 -0.655316,-1.16568 -1.195723,-15.93343 0,-17.44494 0.846504,-0.15502 6.039958,-0.55467 15.464172,-0.55862 z" />
  <path
     id="rect3"
     d="m 1.1616354,1.1963045 c 1.496708,-1.59025 48.2738376,-1.60012 50.0062476,0 1.73241,1.73241 1.73241,48.1415405 0,50.0062405 -1.73241,1.8647 -48.4061206,1.46783 -50.0062476,0 -1.60012692,-1.46783 -1.49670792,-48.4159905 0,-50.0062405 z"
     style="display:none;fill:#000000;stroke-width:0.232587" />
  <path
     id="path28"
     style="display:inline;fill:#000000;stroke-width:0.232587"
     d="M 26.076395,4.5081481e-6 C 13.978473,0.0010045 1.9099894,0.4011845 1.1616354,1.1963145 c -1.49670792,1.59025 -1.60012692,48.5384205 0,50.0062505 1.600127,1.46783 48.2738376,1.8647 50.0062476,0 1.73241,-1.8647 1.73241,-48.2738405 0,-50.0062505 -0.8662,-0.80006 -12.99357,-1.19754 -25.091488,-1.1963099918519 z M 40.549933,11.897475 c 1.16584,-0.0402 2.19616,0.39713 2.51974,1.45262 1.0882,1.61515 -14.72725,28.70942 -17.522962,28.67422 -2.528251,0.14082 -16.5594156,-14.40249 -15.9933396,-15.65073 0.132233,-1.50068 4.8548286,-1.55517 6.5468876,-0.11317 3.350589,2.50126 6.626097,5.42809 8.565886,8.4584 2.707778,-5.98653 10.945368,-20.0888 12.549618,-21.40851 0.86665,-0.85523 2.16833,-1.37269 3.33417,-1.41283 z" />
</svg>
