<?xml version="1.0" encoding="UTF-8" standalone="no"?>
<!-- Created with Inkscape (http://www.inkscape.org/) -->

<svg
   width="45.51133mm"
   height="46.440819mm"
   viewBox="0 0 45.51133 46.440819"
   version="1.1"
   id="svg1"
   xmlns="http://www.w3.org/2000/svg"
   xmlns:svg="http://www.w3.org/2000/svg">
  <defs
     id="defs1" />
  <path
     id="rect49"
     style="display:inline;fill:#000000;fill-opacity:1;stroke-width:0.264583"
     d="m 12.902347,0.00138935 c -9.2106915,-0.0234 -10.3424965,0.24544 -11.2701125,1.04179005 -2.10408605,1.71442 -2.24735505,42.6818396 0,44.1533796 2.426765,1.87371 42.4430835,1.42952 42.9963415,0 1.316298,-1.30634 1.028988,-36.6360396 0,-37.5548096 l -5.192965,-6.59857 C 38.132571,0.54497935 24.744665,0.03151935 12.902347,0.00138935 Z m 1.203027,4.75991005 c 2.599256,0.003 8.53881,0.22329 11.237897,0.26869 -0.151382,3.9941 -0.182344,8.0029596 0.108521,12.5387696 1.770114,0.58286 4.5877,0.614 6.879167,0 0.374002,-4.35987 0.354287,-8.3567096 0.155029,-12.3811596 3.814016,0.10546 3.501621,0.0313 3.729664,0.0889 0.529167,0.65078 0.767863,13.5431196 0,14.2554596 -0.621493,1.30566 -25.467523,0.61727 -26.170495,0 -0.3496675,-0.94278 -0.6428595,-11.8562696 0,-14.2554596 0.742819,-0.39479 -1.6410545,-0.52164 4.060217,-0.51522 z M 25.509329,24.362169 c 5.654529,-0.002 10.26043,0.13768 10.706323,0.55862 1.324373,1.23529 1.003583,16.7421 0,17.44494 -1.411774,1.35773 -24.777689,1.63897 -26.170495,0 -0.6553155,-1.16568 -1.1957225,-15.93343 0,-17.44494 0.846504,-0.15502 6.039958,-0.55467 15.464172,-0.55862 z" />
  <path
     id="rect3"
     d="m 43.173367,-39.768291 c 1.496708,-1.59025 48.273837,-1.60012 50.006247,0 1.73241,1.73241 1.73241,48.1415404 0,50.00624 -1.73241,1.8647 -48.40612,1.46783 -50.006247,0 -1.600127,-1.4678296 -1.496708,-48.41599 0,-50.00624 z"
     style="display:none;fill:#000000;stroke-width:0.232587" />
  <path
     id="path28"
     style="display:none;fill:#000000;stroke-width:0.232587"
     d="m 68.088126,-40.964591 c -12.097922,10e-4 -24.166405,0.40118 -24.914759,1.19631 -1.496708,1.59025 -1.600127,48.5384204 0,50.00625 1.600127,1.46783 48.273837,1.8647 50.006247,0 1.73241,-1.8646996 1.73241,-48.27384 0,-50.00625 -0.8662,-0.80006 -12.99357,-1.19754 -25.091488,-1.19631 z m 14.473538,11.89747 c 1.16584,-0.0402 2.19616,0.39713 2.51974,1.45262 1.0882,1.61515 -14.72725,28.7094204 -17.522962,28.6742204 -2.528251,0.14082 -16.559415,-14.4024904 -15.993339,-15.6507304 0.132233,-1.50068 4.854828,-1.55517 6.546887,-0.11317 3.350589,2.50126 6.626097,5.4280904 8.565886,8.4584004 2.707778,-5.9865304 10.945368,-20.0888004 12.549618,-21.4085104 0.86665,-0.85523 2.16833,-1.37269 3.33417,-1.41283 z" />
</svg>
