<?xml version="1.0" encoding="UTF-8" standalone="no"?>
<!-- Created with Inkscape (http://www.inkscape.org/) -->

<svg
   width="40.432468mm"
   height="42.260456mm"
   viewBox="0 0 40.432468 42.260456"
   version="1.1"
   id="svg1"
   xml:space="preserve"
   xmlns="http://www.w3.org/2000/svg"
   xmlns:svg="http://www.w3.org/2000/svg"><defs
     id="defs1" /><path
     id="path65"
     style="display:none;fill:#000000;fill-opacity:1;stroke-width:0.264583"
     d="M 55.048011,8.9165443 A 24.695705,24.695705 0 0 0 30.352355,33.612205 24.695705,24.695705 0 0 0 55.048011,58.307855 24.695705,24.695705 0 0 0 79.744171,33.612205 24.695705,24.695705 0 0 0 55.048011,8.9165443 Z m 0,6.8791707 a 17.816538,17.816538 0 0 1 8.92296,2.39676 L 39.57143,42.418895 a 17.816538,17.816538 0 0 1 -2.339899,-8.80669 17.816538,17.816538 0 0 1 17.81648,-17.81649 z m 15.46882,8.99119 a 17.816538,17.816538 0 0 1 2.34818,8.8253 17.816538,17.816538 0 0 1 -17.817,17.81648 17.816538,17.816538 0 0 1 -8.93847,-2.40812 z" /><circle
     style="font-variation-settings:normal;display:none;vector-effect:none;fill:#e20000;fill-opacity:0.986574;stroke-width:0.340783;stroke-linecap:butt;stroke-linejoin:miter;stroke-miterlimit:4;stroke-dasharray:none;stroke-dashoffset:0;stroke-opacity:1;-inkscape-stroke:none"
     id="circle38"
     cx="21.144756"
     cy="20.413553"
     r="21.29896" /><path
     id="path39"
     style="font-variation-settings:normal;display:none;vector-effect:none;fill:#000000;fill-opacity:0.986574;stroke-width:0.340783;stroke-linecap:butt;stroke-linejoin:miter;stroke-miterlimit:4;stroke-dasharray:none;stroke-dashoffset:0;stroke-opacity:1;-inkscape-stroke:none"
     d="M 21.298962,-0.33743567 A 21.29896,21.29896 0 0 0 1.4663869e-6,20.961525 21.29896,21.29896 0 0 0 21.298962,42.260485 a 21.29896,21.29896 0 0 0 20.59306,-16.02124 17.197918,17.197918 0 0 1 -13.71389,6.89311 17.197918,17.197918 0 0 1 -17.19792,-17.19791 17.197918,17.197918 0 0 1 11.6179,-16.22743067 21.29896,21.29896 0 0 0 -1.29915,-0.0444 z" /><path
     id="path38"
     style="font-variation-settings:normal;display:inline;vector-effect:none;fill:#000000;fill-opacity:0.986574;stroke-width:0.340783;stroke-linecap:butt;stroke-linejoin:miter;stroke-miterlimit:4;stroke-dasharray:none;stroke-dashoffset:0;stroke-opacity:1;-inkscape-stroke:none"
     d="m 17.341879,0.02942433 c -0.588459,0.10175 -1.165352,0.24462 -1.734225,0.40197 C 6.6078355,2.9208543 1.4663869e-6,11.169505 1.4663869e-6,20.961485 c 0,11.76309 9.5358690336131,21.29896 21.2989605336131,21.29896 7.334743,-0.0143 13.96043,-3.77456 17.802739,-9.66681 0.420783,-0.64528 0.822803,-1.30892 1.159481,-2.01043 0.658406,-1.37187 -0.739071,-1.72445 -1.52291,-1.11751 -0.554183,0.42911 -1.127823,0.83018 -1.725479,1.19102 -2.632586,1.58943 -5.678688,2.46552 -8.834661,2.4756 -9.498145,0 -17.197916,-7.69976 -17.19792,-17.19791 0.01188,-5.09791 2.270079,-9.8007707 5.976174,-12.9933407 0.440654,-0.3796 0.878324,-0.77426 1.382028,-1.07287 0.885098,-0.52471 0.526827,-2.10216997 -0.996535,-1.83876997 z" /><path
     id="rect49"
     style="display:none;fill:#000000;fill-opacity:1;stroke-width:0.264583"
     d="m -13.172116,9.7185743 c -9.210692,-0.0234 -10.342497,0.24544 -11.270113,1.0417907 -2.104086,1.71442 -2.247355,42.68184 0,44.15338 2.426765,1.87371 42.443084,1.42952 42.996342,0 1.316298,-1.30634 1.028988,-36.63604 0,-37.55481 l -5.192965,-6.59857 c -1.30304,-0.4982 -14.6909465,-1.0116607 -26.533264,-1.0417907 z m 1.203027,4.7599107 c 2.5992555,0.003 8.5388095,0.22329 11.23789646,0.26869 -0.151382,3.9941 -0.182344,8.00296 0.108521,12.53877 1.77011404,0.58286 4.58770004,0.614 6.87916704,0 0.374002,-4.35987 0.354287,-8.35671 0.155029,-12.38116 3.8140165,0.10546 3.501621,0.0313 3.7296645,0.0889 0.529167,0.65078 0.767863,13.54312 0,14.25546 -0.6214935,1.30566 -25.467523,0.61727 -26.170495,0 -0.349668,-0.94278 -0.64286,-11.85627 0,-14.25546 0.742819,-0.39479 -1.641055,-0.52164 4.060217,-0.51522 z m 11.40395446,19.60087 c 5.65452904,-0.002 10.26043004,0.13768 10.70632354,0.55862 1.324373,1.23529 1.003583,16.7421 0,17.44494 -1.4117745,1.35773 -24.777689,1.63897 -26.170495,0 -0.655316,-1.16568 -1.195723,-15.93343 0,-17.44494 0.846504,-0.15502 6.0399575,-0.55467 15.46417146,-0.55862 z" /><path
     id="rect3"
     d="m 17.098904,-30.051105 c 1.496708,-1.59025 48.273837,-1.60012 50.006247,0 1.73241,1.73241 1.73241,48.14154 0,50.00624 -1.73241,1.8647 -48.40612,1.46783 -50.006247,0 -1.600127,-1.46783 -1.496708,-48.41599 0,-50.00624 z"
     style="display:none;fill:#000000;stroke-width:0.232587" /><path
     id="path28"
     style="display:none;fill:#000000;stroke-width:0.232587"
     d="m 42.013663,-31.247405 c -12.097922,0.001 -24.166405,0.40118 -24.914759,1.19631 -1.496708,1.59025 -1.600127,48.53842 0,50.00625 1.600127,1.46783 48.273837,1.8647 50.006247,0 1.73241,-1.8647 1.73241,-48.27384 0,-50.00625 -0.8662,-0.80006 -12.99357,-1.19754 -25.091488,-1.19631 z m 14.473538,11.89747 c 1.16584,-0.0402 2.19616,0.39713 2.51974,1.45262 1.0882,1.61515 -14.72725,28.70942 -17.522962,28.67422 -2.528251,0.14082 -16.559415,-14.4024907 -15.993339,-15.6507307 0.132233,-1.50068 4.854828,-1.55517 6.546887,-0.11317 3.350589,2.50126 6.626097,5.42809003 8.565886,8.4584 2.707778,-5.98653 10.945368,-20.0887993 12.549618,-21.4085093 0.86665,-0.85523 2.16833,-1.37269 3.33417,-1.41283 z" /></svg>
