<?xml version="1.0" encoding="UTF-8" standalone="no"?>
<!-- Created with Inkscape (http://www.inkscape.org/) -->

<svg
   width="51.98867mm"
   height="54.725269mm"
   viewBox="0 0 51.98867 54.725269"
   version="1.1"
   id="svg1"
   xmlns="http://www.w3.org/2000/svg"
   xmlns:svg="http://www.w3.org/2000/svg">
  <defs
     id="defs1" />
  <path
     id="path36"
     style="display:inline;fill:#000000;fill-opacity:1;stroke-width:0.1365"
     d="m 25.994026,2.2888115e-6 c -0.51799,0 -1.03564,0.1681700011885 -1.35512,0.5044600011885 -3.157358,3.32352001 -4.277033,6.78741001 -0.33631,10.93552971 0.7975,0.83948 2.58597,0.83948 3.38347,0 3.94073,-4.1481197 2.82105,-7.6120097 -0.33631,-10.93552971 C 27.030276,0.16817229 26.512006,2.2888115e-6 25.994026,2.2888115e-6 Z M 8.9110002,7.3622823 c -0.903658,0 -1.91707,1.06662 -1.917072,2.01784 -6e-6,4.7001497 1.535201,7.9829497 7.1081898,7.9829497 1.127865,0 2.392476,-1.33135 2.392476,-2.51858 0,-5.8662997 -3.118451,-7.4822097 -7.5835938,-7.4822097 z m 34.1666558,0 c -4.46508,1.1e-4 -7.58355,1.61595 -7.58359,7.4822097 0,1.18722 1.26462,2.51797 2.39248,2.51797 5.57293,5e-5 5.39945,-3.64003 7.10819,-7.9823397 -0.34582,-0.87875 -1.01347,-2.01786 -1.91708,-2.01784 z m -17.49227,8.0039797 c -6.50331,1.1e-4 -11.774959,5.27175 -11.775063,11.77506 -4.2e-5,6.50341 5.271651,11.77557 11.775063,11.77568 6.50351,3e-5 11.77573,-5.27217 11.77568,-11.77568 -9e-5,-6.50341 -5.27227,-11.7751 -11.77568,-11.77506 z m -19.5595758,7.56381 c -1.95229,-0.0542 -3.770574,1.13626 -5.54658801,3.00573 -0.638965,0.67259 -0.638965,2.18108 0,2.85367 3.15735701,3.32353 6.44768901,4.50235 10.38841581,0.35423 0.797497,-0.83948 0.797497,-2.72203 0,-3.5615 -1.7240678,-1.81482 -3.3233798,-2.61002 -4.8418278,-2.65213 z m 39.9370458,0 c -1.51845,0.0421 -3.11776,0.83731 -4.84183,2.65213 -0.79751,0.83947 -0.79751,2.72202 0,3.5615 3.94072,4.14812 7.23106,2.9693 10.38841,-0.35423 0.63898,-0.67259 0.63898,-2.18108 0,-2.85367 -1.776,-1.86947 -3.59429,-3.05988 -5.54658,-3.00573 z m -31.860738,14.43213 c -5.5729858,0 -7.1081818,3.28281 -7.1081898,7.98296 -1e-6,0.95122 1.013409,2.01784 1.917072,2.01784 4.4651458,10e-6 7.5835938,-1.6159 7.5835938,-7.48221 0,-1.18723 -1.264611,-2.51859 -2.392476,-2.51859 z m 23.784428,6.2e-4 c -1.12786,0 -2.39247,1.33135 -2.39248,2.51858 0,5.86631 3.11846,7.4816 7.58359,7.4816 0.90367,0 1.91708,-1.06662 1.91708,-2.01784 0,-4.70015 -1.5352,-7.98234 -7.10819,-7.98234 z m -11.89252,5.29312 c -0.6465,0 -1.29268,0.2096 -1.69143,0.62934 -3.940723,4.14813 -2.821048,7.61201 0.33631,10.93553 0.63897,0.6726 2.07189,0.6726 2.71085,0 3.15736,-3.32352 4.27704,-6.7874 0.33631,-10.93553 -0.39875,-0.41974 -1.04554,-0.62934 -1.69204,-0.62934 z" />
</svg>
