<?xml version="1.0" encoding="UTF-8" standalone="no"?>
<!-- Created with Inkscape (http://www.inkscape.org/) -->

<svg
   width="52.655079mm"
   height="46.440819mm"
   viewBox="0 0 52.655079 46.440819"
   version="1.1"
   id="svg1"
   xmlns="http://www.w3.org/2000/svg"
   xmlns:svg="http://www.w3.org/2000/svg">
  <defs
     id="defs1" />
  <path
     id="rect49"
     style="display:inline;fill:#000000;fill-opacity:1;stroke-width:0.264583"
     d="m 20.046096,0.00138935 c -9.210692,-0.0234 -17.486247,0.24544 -18.413863,1.04179005 -2.10408602,1.71442 -2.24735502,42.6818396 0,44.1533796 2.426765,1.87371 49.586834,1.42952 50.140092,0 1.316298,-1.30634 1.028988,-36.6360396 0,-37.5548096 L 46.57936,1.0431794 C 45.27632,0.54497935 31.888414,0.03151935 20.046096,0.00138935 Z m 1.203027,4.75991005 c 2.599256,0.003 5.358302,0.0362 8.057389,0.0816 -0.151382,3.9941 -0.182344,8.0029596 0.108521,12.5387696 1.770114,0.58286 4.5877,0.614 6.879167,0 0.374002,-4.35987 0.354287,-8.3567096 0.155029,-12.3811596 3.814016,0.10546 6.682129,0.21838 6.910172,0.27596 0.529167,0.65078 0.767863,13.5431196 0,14.2554596 -0.621493,1.30566 -32.611273,0.61727 -33.314245,0 -0.349668,-0.94278 -0.64286,-11.8562696 0,-14.2554596 0.742819,-0.39479 5.502695,-0.52164 11.203967,-0.51522 z M 32.653078,24.362169 c 5.654529,-0.002 10.26043,0.13768 10.706323,0.55862 1.324373,1.23529 1.003583,17.66814 0,18.37098 -1.411774,1.35773 -31.921439,1.63897 -33.314245,0 -0.655316,-1.16568 -1.195723,-16.85947 0,-18.37098 0.846504,-0.15502 13.183708,-0.55467 22.607922,-0.55862 z" />
</svg>
