<?xml version="1.0" encoding="UTF-8" standalone="no"?>
<!-- Created with Inkscape (http://www.inkscape.org/) -->

<svg
   width="56.746914mm"
   height="56.746925mm"
   viewBox="0 0 56.746914 56.746925"
   version="1.1"
   id="svg1"
   xml:space="preserve"
   xmlns="http://www.w3.org/2000/svg"
   xmlns:svg="http://www.w3.org/2000/svg"><defs
     id="defs1" /><path
     id="path40"
     style="display:inline;fill:#000000;fill-opacity:1;stroke-width:0.1365"
     d="m 28.234447,5.9284071e-6 c -0.51798,0 -1.03859,0.1811999915929 -1.35547,0.5513899915929 -1.05261,1.22968998 -2.189249,10.51988008 -0.73329,11.95069008 0.99951,0.98222 3.37659,1.00877 4.34237,0 1.21583,-1.26997 0.0604,-10.7721101 -0.89865,-11.95069008 C 29.281157,0.17259592 28.752437,5.9284071e-6 28.234447,5.9284071e-6 Z M 46.989897,7.6434659 c -1.1095,0.0861 -4.9412,2.8382301 -7.22178,5.2131201 -1.03664,1.07948 -1.75273,2.08082 -1.74718,2.7187 0.0122,1.40129 1.67439,3.10101 3.07061,3.07061 1.75773,-0.0383 7.65979,-7.57422 7.81503,-9.0857501 0.0499,-0.48582 -0.20216,-0.98196 -0.56844,-1.34824 -0.36626,-0.36626 -0.86241,-0.60614 -1.34824,-0.56844 z m -37.4297583,0.19689 c -0.485817,-0.0499 -0.981963,0.20217 -1.348238,0.56844 -0.366267,0.36627 -0.606137,0.86241 -0.568441,1.34824 0.125214,1.6138301 5.8905603,8.9867401 7.9318153,8.9689601 1.401294,-0.0122 3.101011,-1.67441 3.070613,-3.07062 -0.03828,-1.75773 -7.574203,-7.6598001 -9.0857493,-7.8150201 z M 28.198277,16.597446 c -6.50331,1.1e-4 -11.774888,5.27168 -11.774992,11.77499 -4.2e-5,6.50341 5.27158,11.77591 11.774992,11.77602 6.50351,3e-5 11.77608,-5.27251 11.77603,-11.77602 -9e-5,-6.50341 -5.27262,-11.77503 -11.77603,-11.77499 z m 19.20451,8.86147 c -1.49632,0.0303 -2.71082,0.2318 -3.15794,0.68678 -0.98222,0.99951 -1.00877,3.37659 0,4.34237 1.26997,1.21583 10.77211,0.0604 11.95069,-0.89865 0.3788,-0.30825 0.55138,-0.83697 0.55138,-1.35496 0,-0.51798 -0.18119,-1.03859 -0.55138,-1.35547 -0.84541,-0.72367 -5.50083,-1.48675 -8.79275,-1.42007 z m -38.0586563,0.2806 c -3.291919,-0.0667 -7.947332,0.6964 -8.79274399,1.42007 -0.37019,0.31688 -0.5513880019428,0.83749 -0.5513880019428,1.35547 0,0.51799 0.1725880019428,1.04671 0.5513880019428,1.35496 1.17857999,0.95907 10.68072029,2.11448 11.95069029,0.89865 0.50439,-0.48289 0.750035,-1.31853 0.746725,-2.15852 -0.0033,-0.83998 -0.255615,-1.6841 -0.746725,-2.18385 -0.447128,-0.45499 -1.66162,-0.65648 -3.1579463,-0.68678 z m 31.9458563,12.16309 c -0.69811,-0.0152 -1.46304,0.40207 -2.05466,0.99838 -0.59161,0.5963 -1.00985,1.37159 -1.01596,2.07223 -0.0178,2.04126 7.35514,7.8066 8.96897,7.93181 0.48583,0.0377 0.98196,-0.20217 1.34823,-0.56844 0.36627,-0.36627 0.61833,-0.86242 0.56844,-1.34823 -0.15522,-1.51155 -6.05729,-9.04746 -7.81502,-9.08575 z m -25.516275,0.31677 c -0.637893,-0.006 -1.639209,0.71055 -2.718697,1.74718 -2.374881,2.2806 -5.1270323,6.11227 -5.2131173,7.22178 -0.03769,0.48583 0.202173,0.98197 0.56844,1.34824 0.366274,0.36627 0.86242,0.61832 1.348238,0.56844 1.5115463,-0.15522 9.0474673,-6.05729 9.0857503,-7.81502 0.0152,-0.69811 -0.402086,-1.46304 -0.998389,-2.05466 -0.596289,-0.59162 -1.371581,-1.00986 -2.072225,-1.01596 z m 12.836425,5.27875 c -0.83998,0.003 -1.6841,0.25561 -2.18385,0.74672 -1.45596,1.43081 -0.31932,10.72101 0.73329,11.9507 0.31688,0.37019 0.8375,0.55138 1.35548,0.55138 0.51799,0 1.0467,-0.17258 1.35495,-0.55138 0.95907,-1.17858 2.11449,-10.68073 0.89866,-11.9507 -0.48289,-0.50439 -1.31854,-0.75003 -2.15853,-0.74672 z" /><path
     id="rect3"
     d="m -0.39325929,29.635396 c 1.49670799,-1.59025 48.27383629,-1.60012 50.00624629,0 1.73241,1.73241 1.73241,48.14154 0,50.00624 -1.73241,1.8647 -48.4061193,1.46783 -50.00624629,0 -1.60012701,-1.46783 -1.49670801,-48.41599 0,-50.00624 z"
     style="display:none;fill:#000000;stroke-width:0.232587" /></svg>
