<?xml version="1.0" encoding="UTF-8" standalone="no"?>
<!-- Created with Inkscape (http://www.inkscape.org/) -->

<svg
   width="52.467194mm"
   height="52.456669mm"
   viewBox="0 0 52.467194 52.456669"
   version="1.1"
   id="svg1"
   xmlns="http://www.w3.org/2000/svg"
   xmlns:svg="http://www.w3.org/2000/svg">
  <defs
     id="defs1" />
  <path
     id="path36"
     style="display:none;fill:#000000;fill-opacity:1;stroke-width:0.1365"
     d="m -23.28386,-27.207755 c -0.51799,0 -1.03564,0.16817 -1.35512,0.50446 -3.157358,3.32352 -4.277033,6.78741 -0.33631,10.93553 0.7975,0.83948 2.58597,0.83948 3.38347,0 3.94073,-4.14812 2.82105,-7.61201 -0.33631,-10.93553 -0.31948,-0.33629 -0.83775,-0.50446 -1.35573,-0.50446 z m -17.083026,7.36228 c -0.903658,0 -1.91707,1.06662 -1.917072,2.01784 -6e-6,4.70015 1.535201,7.9829495 7.10819,7.9829495 1.127865,0 2.392476,-1.3313495 2.392476,-2.5185795 0,-5.8663 -3.118451,-7.48221 -7.583594,-7.48221 z m 34.1666564,0 c -4.4650804,1.1e-4 -7.5835504,1.61595 -7.5835904,7.48221 0,1.18722 1.26462,2.5179695 2.39248,2.5179695 5.5729304,5e-5 5.3994504,-3.6400295 7.1081904,-7.9823395 -0.34582,-0.87875 -1.01347,-2.01786 -1.91708,-2.01784 z m -17.4922704,8.00398 c -6.50331,1.1e-4 -11.774959,5.2717495 -11.775063,11.7750595 -4.2e-5,6.50341 5.271651,11.7755705 11.775063,11.7756805 6.50351,3e-5 11.77573,-5.2721705 11.77568,-11.7756805 -9e-5,-6.50341 -5.27227,-11.7750995 -11.77568,-11.7750595 z m -19.559576,7.5638095 c -1.95229,-0.0542 -3.770574,1.13626 -5.546588,3.00573 -0.638965,0.67259 -0.638965,2.18108 0,2.85367 3.157357,3.32353 6.447689,4.50235 10.388416,0.35423 0.797497,-0.83948 0.797497,-2.72203 0,-3.5615 -1.724068,-1.81482 -3.32338,-2.61002 -4.841828,-2.65213 z m 39.9370464,0 c -1.51845,0.0421 -3.11776,0.83731 -4.84183,2.65213 -0.79751,0.83947 -0.79751,2.72202 0,3.5615 3.94072,4.14812 7.23106001,2.9693 10.38841,-0.35423 0.63898,-0.67259 0.63898,-2.18108 0,-2.85367 -1.77599999,-1.86947 -3.59429,-3.05988 -5.54658,-3.00573 z M -35.175768,10.154445 c -5.572986,0 -7.108182,3.28281 -7.10819,7.98296 -1e-6,0.95122 1.013409,2.01784 1.917072,2.01784 4.465146,10e-6 7.583594,-1.6159 7.583594,-7.48221 0,-1.18723 -1.264611,-2.51859 -2.392476,-2.51859 z m 23.784428,6.2e-4 c -1.12786,0 -2.39247,1.33135 -2.39248,2.51858 0,5.86631 3.11846,7.4816 7.5835904,7.4816 0.90367,0 1.91708,-1.06662 1.91708,-2.01784 0,-4.70015 -1.5352,-7.98234 -7.1081904,-7.98234 z m -11.89252,5.29312 c -0.6465,0 -1.29268,0.2096 -1.69143,0.62934 -3.940723,4.14813 -2.821048,7.61201 0.33631,10.93553 0.63897,0.6726 2.07189,0.6726 2.71085,0 3.15736,-3.32352 4.27704,-6.7874 0.33631,-10.93553 -0.39875,-0.41974 -1.04554,-0.62934 -1.69204,-0.62934 z" />
  <path
     id="path65"
     style="display:none;fill:#000000;fill-opacity:1;stroke-width:0.264583"
     d="m -14.33509,40.163955 a 24.695705,24.695705 0 0 0 -24.695656,24.69566 24.695705,24.695705 0 0 0 24.695656,24.69565 24.695705,24.695705 0 0 0 24.69616,-24.69565 24.695705,24.695705 0 0 0 -24.69616,-24.69566 z m 0,6.87917 a 17.816538,17.816538 0 0 1 8.9229604,2.39676 l -24.3995414,24.22642 a 17.816538,17.816538 0 0 1 -2.339899,-8.80669 17.816538,17.816538 0 0 1 17.81648,-17.81649 z m 15.4688204,8.99119 a 17.816538,17.816538 0 0 1 2.34818,8.8253 17.816538,17.816538 0 0 1 -17.8170004,17.81648 17.816538,17.816538 0 0 1 -8.93847,-2.40812 z" />
  <path
     id="path30"
     style="fill:#000000;stroke-width:0.232587"
     d="M 26.0764,4.5081481e-6 C 13.97847,0.0010045 1.9099904,0.4011845 1.1616404,1.1963145 c -1.49670999,1.59025 -1.60012999,48.5384205 0,50.0062505 1.60012,1.46783 48.2738296,1.8647 50.0062396,0 1.73241,-1.8647 1.73241,-48.2738405 0,-50.0062505 C 50.30168,0.3962545 38.17431,-0.0012255 26.0764,4.5081481e-6 Z M 15.07862,9.6888145 c 0.16129,-0.004 0.31172,0.0239 0.447,0.0873 1.36714,0.6880405 7.23061,7.5189305 10.91819,11.3776005 3.68759,-3.85868 9.55054,-10.68957 10.91768,-11.3776005 1.44292,-0.67591 4.61989,2.7436005 4.11603,4.1155105 -0.31245,1.23751 -6.96168,8.14858 -10.45879,12.23439 3.49717,4.08585 10.14635,10.9964 10.45879,12.23388 0.50386,1.37191 -2.67311,4.79194 -4.11603,4.11603 -1.36715,-0.68804 -7.23009,-7.51944 -10.91768,-11.37812 -3.68758,3.85867 -9.55104,10.69008 -10.91819,11.37812 -1.44292,0.67591 -4.61937,-2.74412 -4.11551,-4.11603 0.31244,-1.23748 6.96161,-8.14803 10.45879,-12.23388 -3.49712,-4.08581 -10.14634,-10.99688 -10.45879,-12.23439 -0.45663,-1.24329 2.10935,-4.1683505 3.66851,-4.2028505 z" />
</svg>
