<?xml version="1.0" encoding="UTF-8" standalone="no"?>
<!-- Created with Inkscape (http://www.inkscape.org/) -->

<svg
   width="55.743366mm"
   height="55.74234mm"
   viewBox="0 0 55.743366 55.74234"
   version="1.1"
   id="svg1"
   xml:space="preserve"
   xmlns="http://www.w3.org/2000/svg"
   xmlns:svg="http://www.w3.org/2000/svg"><defs
     id="defs1" /><path
     id="rect1"
     style="font-variation-settings:normal;display:inline;opacity:1;vector-effect:none;fill:#000000;fill-opacity:1;stroke-width:1;stroke-linecap:round;stroke-linejoin:round;stroke-miterlimit:21;stroke-dasharray:none;stroke-dashoffset:0;stroke-opacity:1;-inkscape-stroke:none;stop-color:#000000;stop-opacity:1"
     d="M 10.48412,-2.7320149e-6 C 4.7281309,-2.7320149e-6 1.0879713e-5,4.7281193 1.0879713e-5,10.484112 v 34.773589 c 0,5.756 4.728120020287,10.48463 10.484109120287,10.48463 h 34.77566 c 5.756,0 10.48256,-4.72863 10.48256,-10.48463 V 26.587522 h -6.00015 v 18.670179 c 0,2.53578 -1.94663,4.48448 -4.48241,4.48448 H 10.48412 c -2.5357691,0 -4.4839591,-1.9487 -4.4839591,-4.48448 V 10.484112 c 0,-2.5357757 1.94819,-4.4839637 4.4839591,-4.4839637 H 27.95489 V -2.7320149e-6 Z M 32.53859,0.00619727 V 6.0063473 h 12.72222 c 0.15324,0 0.30405,0.0083 0.45269,0.02222 L 26.29142,25.450637 30.13357,29.479849 49.70395,9.9094673 c 0.0231,0.1902977 0.0393,0.3832457 0.0393,0.5813597 v 11.87111 H 55.7434 V 4.0085383 c 0,-1.919535 -2.14687,-4.00233903 -4.39714,-4.00233903 z" /></svg>
