<?xml version="1.0" encoding="UTF-8" standalone="no"?>
<!-- Created with Inkscape (http://www.inkscape.org/) -->

<svg
   width="49.386139mm"
   height="45.858185mm"
   viewBox="0 0 49.386139 45.858185"
   version="1.1"
   id="svg1"
   xmlns="http://www.w3.org/2000/svg"
   xmlns:svg="http://www.w3.org/2000/svg">
  <defs
     id="defs1" />
  <path
     id="path29"
     style="fill:#000000;fill-opacity:1;stroke-width:0.277152"
     d="M 24.69307,-6.4526723e-6 A 24.693058,22.929268 0 0 0 -1.2210719e-6,22.928827 24.693058,22.929268 0 0 0 24.69307,45.858177 24.693058,22.929268 0 0 0 49.386136,22.928827 24.693058,22.929268 0 0 0 48.963938,18.734768 C 46.102852,23.023571 41.881713,24.504764 39.604297,15.356163 31.960808,22.341998 24.20004,14.794694 28.755353,8.7012711 24.439908,7.3418681 23.599588,2.1636199 26.572538,0.07285707 A 24.693058,22.929268 0 0 0 24.69307,-7.5001791e-6 Z M 17.625793,8.3261003 a 2.0032392,1.8641521 0 0 1 2.003503,1.8639697 2.0032392,1.8641521 0 0 1 -2.003503,1.863969 2.0032392,1.8641521 0 0 1 -2.00298,-1.863969 2.0032392,1.8641521 0 0 1 2.00298,-1.8639697 z m 4.041616,9.1456957 a 1.3331181,1.2405582 0 0 1 1.333256,1.24075 1.3331181,1.2405582 0 0 1 -1.333256,1.240752 1.3331181,1.2405582 0 0 1 -1.333246,-1.240752 1.3331181,1.2405582 0 0 1 1.333246,-1.24075 z m -10.985371,4.411616 a 3.5275798,3.2826561 0 0 1 3.527426,3.283005 3.5275798,3.2826561 0 0 1 -3.527426,3.28249 3.5275798,3.2826561 0 0 1 -3.5274379,-3.28249 3.5275798,3.2826561 0 0 1 3.5274379,-3.283005 z m 23.179974,6.397538 a 1.3331181,1.2405582 0 0 1 1.333256,1.240761 1.3331181,1.2405582 0 0 1 -1.333256,1.240228 1.3331181,1.2405582 0 0 1 -1.333246,-1.240228 1.3331181,1.2405582 0 0 1 1.333246,-1.240761 z m -5.546433,3.75792 a 2.5023496,2.5500704 0 0 1 2.502692,2.550229 2.5023496,2.5500704 0 0 1 -2.502692,2.550229 2.5023496,2.5500704 0 0 1 -2.502169,-2.550229 2.5023496,2.5500704 0 0 1 2.502169,-2.550229 z" />
</svg>
