<?xml version="1.0" encoding="UTF-8" standalone="no"?>
<!-- Created with Inkscape (http://www.inkscape.org/) -->

<svg
   width="47.24424mm"
   height="48.479473mm"
   viewBox="0 0 47.24424 48.479473"
   version="1.1"
   id="svg1"
   xmlns="http://www.w3.org/2000/svg"
   xmlns:svg="http://www.w3.org/2000/svg">
  <defs
     id="defs1" />
  <path
     id="rect9"
     style="display:inline;fill:#000000;fill-opacity:1;stroke-width:0.374537"
     d="M 14.404901,-2.2127567e-7 14.60334,5.7686392 c 1.099313,-0.3978632 2.269551,-0.6197306 3.487125,-0.6268339 8.620505,-0.050409 15.297774,7.6340637 15.297774,13.9252477 -0.0064,3.838295 -0.659759,7.996784 -3.657142,10.446908 4.658189,1.865683 6.266993,4.56741 7.953001,7.754564 0.33944,0.943128 0.615506,1.773803 0.84129,2.522845 l 8.718857,0.198953 V -2.2127567e-7 Z M 28.752862,5.1449054 H 44.367413 V 7.5793813 H 31.485512 Z M 17.892028,7.1282472 C 11.319542,7.1665952 6.1144525,13.436068 6.1144525,20.12642 c 0.00637,3.838296 1.7439298,7.475368 4.7413115,9.925492 -4.6581875,1.865683 -7.5495929,4.227897 -9.2356115,7.415052 -2.55802176,7.107316 -1.72233665,8.194698 0,10.937316 8.4241555,0.220861 25.9636415,-0.127911 33.9452145,0 1.722341,-2.742618 2.558026,-3.83 0,-10.937316 -1.686018,-3.187155 -4.576907,-5.549369 -9.235095,-7.415052 2.997382,-2.450124 4.734401,-6.087196 4.740795,-9.925492 0,-6.291183 -4.558534,-13.0485814 -13.179039,-12.9981728 z M 34.90701,11.32489 h 9.460403 v 2.434476 h -8.686808 z m 1.689303,6.741708 h 7.7711 v 2.434476 h -7.7711 z m -0.01132,6.928776 h 7.782467 v 2.434476 h -9.239232 z" />
</svg>
