<?xml version="1.0" encoding="UTF-8" standalone="no"?>
<!-- Created with Inkscape (http://www.inkscape.org/) -->

<svg
   width="63.353245mm"
   height="51.412323mm"
   viewBox="0 0 63.353245 51.412323"
   version="1.1"
   id="svg1"
   xmlns="http://www.w3.org/2000/svg"
   xmlns:svg="http://www.w3.org/2000/svg">
  <defs
     id="defs1" />
  <path
     id="path1"
     style="display:inline;stroke-width:0.259216"
     d="m 1.4860926e-8,17.347844 c 0,0 0.499387995139074,8.250725 8.116817785139073,4.080888 0,0 -1.2751498,27.280677 0,29.147577 1.8159,0.94158 15.1640812,1.199 17.3162552,0.19017 0.14267,-1.33159 -1.322434,-12.86754 0.03204,-13.65447 1.038168,-0.60315 3.571517,-1.10788 6.211507,-1.29294 2.639974,0.18507 5.173343,0.68979 6.211507,1.29294 1.354474,0.78693 -0.110631,12.32288 0.03204,13.65447 2.152174,1.00883 15.499837,0.75141 17.315737,-0.19017 1.27515,-1.8669 0,-29.147577 0,-29.147577 7.61743,4.169837 8.11734,-4.080888 8.11734,-4.080888 C 45.421835,7.0820719 34.198757,-0.22371807 31.359327,0.00523393 28.554969,-0.18029207 10.139949,11.488657 1.4860926e-8,17.347844 Z" />
</svg>
