<?xml version="1.0" encoding="UTF-8" standalone="no"?>
<!-- Created with Inkscape (http://www.inkscape.org/) -->

<svg
   width="49.391815mm"
   height="49.3913mm"
   viewBox="0 0 49.391815 49.3913"
   version="1.1"
   id="svg1"
   xmlns="http://www.w3.org/2000/svg"
   xmlns:svg="http://www.w3.org/2000/svg">
  <defs
     id="defs1" />
  <path
     id="path65"
     style="display:inline;fill:#000000;fill-opacity:1;stroke-width:0.264583"
     d="M 24.695654,-1.6162706e-5 A 24.695705,24.695705 0 0 0 -1.698028e-6,24.695644 24.695705,24.695705 0 0 0 24.695654,49.391294 24.695705,24.695705 0 0 0 49.391814,24.695644 24.695705,24.695705 0 0 0 24.695654,-1.6162706e-5 Z m 0,6.879169962706 a 17.816538,17.816538 0 0 1 8.92296,2.39676 L 9.2190733,33.502334 A 17.816538,17.816538 0 0 1 6.8791743,24.695644 17.816538,17.816538 0 0 1 24.695654,6.8791538 Z m 15.46882,8.9911902 a 17.816538,17.816538 0 0 1 2.34818,8.8253 17.816538,17.816538 0 0 1 -17.817,17.81648 17.816538,17.816538 0 0 1 -8.93847,-2.40812 z" />
</svg>
